G04 #@! TF.GenerationSoftware,KiCad,Pcbnew,(5.1.6-0)*
G04 #@! TF.CreationDate,2022-05-17T12:15:47+02:00*
G04 #@! TF.ProjectId,ESP32-S3+TFT_Combiner,45535033-322d-4533-932b-5446545f436f,rev?*
G04 #@! TF.SameCoordinates,Original*
G04 #@! TF.FileFunction,Legend,Top*
G04 #@! TF.FilePolarity,Positive*
%FSLAX46Y46*%
G04 Gerber Fmt 4.6, Leading zero omitted, Abs format (unit mm)*
G04 Created by KiCad (PCBNEW (5.1.6-0)) date 2022-05-17 12:15:47*
%MOMM*%
%LPD*%
G01*
G04 APERTURE LIST*
%ADD10C,0.150000*%
%ADD11C,0.120000*%
%ADD12C,0.240000*%
G04 APERTURE END LIST*
D10*
X140657619Y-78626476D02*
X140657619Y-79245523D01*
X140276666Y-78912190D01*
X140276666Y-79055047D01*
X140229047Y-79150285D01*
X140181428Y-79197904D01*
X140086190Y-79245523D01*
X139848095Y-79245523D01*
X139752857Y-79197904D01*
X139705238Y-79150285D01*
X139657619Y-79055047D01*
X139657619Y-78769333D01*
X139705238Y-78674095D01*
X139752857Y-78626476D01*
X140657619Y-79578857D02*
X140657619Y-80245523D01*
X139657619Y-79816952D01*
X115210000Y-78674095D02*
X115257619Y-78578857D01*
X115257619Y-78436000D01*
X115210000Y-78293142D01*
X115114761Y-78197904D01*
X115019523Y-78150285D01*
X114829047Y-78102666D01*
X114686190Y-78102666D01*
X114495714Y-78150285D01*
X114400476Y-78197904D01*
X114305238Y-78293142D01*
X114257619Y-78436000D01*
X114257619Y-78531238D01*
X114305238Y-78674095D01*
X114352857Y-78721714D01*
X114686190Y-78721714D01*
X114686190Y-78531238D01*
X114257619Y-79150285D02*
X115257619Y-79150285D01*
X114257619Y-79721714D01*
X115257619Y-79721714D01*
X114257619Y-80197904D02*
X115257619Y-80197904D01*
X115257619Y-80436000D01*
X115210000Y-80578857D01*
X115114761Y-80674095D01*
X115019523Y-80721714D01*
X114829047Y-80769333D01*
X114686190Y-80769333D01*
X114495714Y-80721714D01*
X114400476Y-80674095D01*
X114305238Y-80578857D01*
X114257619Y-80436000D01*
X114257619Y-80197904D01*
X160644285Y-79150285D02*
X159977619Y-79150285D01*
X161025238Y-78912190D02*
X160310952Y-78674095D01*
X160310952Y-79293142D01*
X160644285Y-80102666D02*
X159977619Y-80102666D01*
X161025238Y-79864571D02*
X160310952Y-79626476D01*
X160310952Y-80245523D01*
X163184285Y-79150285D02*
X162517619Y-79150285D01*
X163565238Y-78912190D02*
X162850952Y-78674095D01*
X162850952Y-79293142D01*
X163517619Y-80150285D02*
X163517619Y-79674095D01*
X163041428Y-79626476D01*
X163089047Y-79674095D01*
X163136666Y-79769333D01*
X163136666Y-80007428D01*
X163089047Y-80102666D01*
X163041428Y-80150285D01*
X162946190Y-80197904D01*
X162708095Y-80197904D01*
X162612857Y-80150285D01*
X162565238Y-80102666D01*
X162517619Y-80007428D01*
X162517619Y-79769333D01*
X162565238Y-79674095D01*
X162612857Y-79626476D01*
X157437619Y-79721714D02*
X157437619Y-79150285D01*
X157437619Y-79436000D02*
X158437619Y-79436000D01*
X158294761Y-79340761D01*
X158199523Y-79245523D01*
X158151904Y-79150285D01*
X153024285Y-79150285D02*
X152357619Y-79150285D01*
X153405238Y-78912190D02*
X152690952Y-78674095D01*
X152690952Y-79293142D01*
X153262380Y-79626476D02*
X153310000Y-79674095D01*
X153357619Y-79769333D01*
X153357619Y-80007428D01*
X153310000Y-80102666D01*
X153262380Y-80150285D01*
X153167142Y-80197904D01*
X153071904Y-80197904D01*
X152929047Y-80150285D01*
X152357619Y-79578857D01*
X152357619Y-80197904D01*
X125084285Y-79150285D02*
X124417619Y-79150285D01*
X125465238Y-78912190D02*
X124750952Y-78674095D01*
X124750952Y-79293142D01*
X125417619Y-79578857D02*
X125417619Y-80245523D01*
X124417619Y-79816952D01*
X135577619Y-78626476D02*
X135577619Y-79245523D01*
X135196666Y-78912190D01*
X135196666Y-79055047D01*
X135149047Y-79150285D01*
X135101428Y-79197904D01*
X135006190Y-79245523D01*
X134768095Y-79245523D01*
X134672857Y-79197904D01*
X134625238Y-79150285D01*
X134577619Y-79055047D01*
X134577619Y-78769333D01*
X134625238Y-78674095D01*
X134672857Y-78626476D01*
X135577619Y-80150285D02*
X135577619Y-79674095D01*
X135101428Y-79626476D01*
X135149047Y-79674095D01*
X135196666Y-79769333D01*
X135196666Y-80007428D01*
X135149047Y-80102666D01*
X135101428Y-80150285D01*
X135006190Y-80197904D01*
X134768095Y-80197904D01*
X134672857Y-80150285D01*
X134625238Y-80102666D01*
X134577619Y-80007428D01*
X134577619Y-79769333D01*
X134625238Y-79674095D01*
X134672857Y-79626476D01*
X120242380Y-78674095D02*
X120290000Y-78721714D01*
X120337619Y-78816952D01*
X120337619Y-79055047D01*
X120290000Y-79150285D01*
X120242380Y-79197904D01*
X120147142Y-79245523D01*
X120051904Y-79245523D01*
X119909047Y-79197904D01*
X119337619Y-78626476D01*
X119337619Y-79245523D01*
X120337619Y-79864571D02*
X120337619Y-79959809D01*
X120290000Y-80055047D01*
X120242380Y-80102666D01*
X120147142Y-80150285D01*
X119956666Y-80197904D01*
X119718571Y-80197904D01*
X119528095Y-80150285D01*
X119432857Y-80102666D01*
X119385238Y-80055047D01*
X119337619Y-79959809D01*
X119337619Y-79864571D01*
X119385238Y-79769333D01*
X119432857Y-79721714D01*
X119528095Y-79674095D01*
X119718571Y-79626476D01*
X119956666Y-79626476D01*
X120147142Y-79674095D01*
X120242380Y-79721714D01*
X120290000Y-79769333D01*
X120337619Y-79864571D01*
X166010000Y-78674095D02*
X166057619Y-78578857D01*
X166057619Y-78436000D01*
X166010000Y-78293142D01*
X165914761Y-78197904D01*
X165819523Y-78150285D01*
X165629047Y-78102666D01*
X165486190Y-78102666D01*
X165295714Y-78150285D01*
X165200476Y-78197904D01*
X165105238Y-78293142D01*
X165057619Y-78436000D01*
X165057619Y-78531238D01*
X165105238Y-78674095D01*
X165152857Y-78721714D01*
X165486190Y-78721714D01*
X165486190Y-78531238D01*
X165057619Y-79150285D02*
X166057619Y-79150285D01*
X165057619Y-79721714D01*
X166057619Y-79721714D01*
X165057619Y-80197904D02*
X166057619Y-80197904D01*
X166057619Y-80436000D01*
X166010000Y-80578857D01*
X165914761Y-80674095D01*
X165819523Y-80721714D01*
X165629047Y-80769333D01*
X165486190Y-80769333D01*
X165295714Y-80721714D01*
X165200476Y-80674095D01*
X165105238Y-80578857D01*
X165057619Y-80436000D01*
X165057619Y-80197904D01*
X143197619Y-78626476D02*
X143197619Y-79245523D01*
X142816666Y-78912190D01*
X142816666Y-79055047D01*
X142769047Y-79150285D01*
X142721428Y-79197904D01*
X142626190Y-79245523D01*
X142388095Y-79245523D01*
X142292857Y-79197904D01*
X142245238Y-79150285D01*
X142197619Y-79055047D01*
X142197619Y-78769333D01*
X142245238Y-78674095D01*
X142292857Y-78626476D01*
X142769047Y-79816952D02*
X142816666Y-79721714D01*
X142864285Y-79674095D01*
X142959523Y-79626476D01*
X143007142Y-79626476D01*
X143102380Y-79674095D01*
X143150000Y-79721714D01*
X143197619Y-79816952D01*
X143197619Y-80007428D01*
X143150000Y-80102666D01*
X143102380Y-80150285D01*
X143007142Y-80197904D01*
X142959523Y-80197904D01*
X142864285Y-80150285D01*
X142816666Y-80102666D01*
X142769047Y-80007428D01*
X142769047Y-79816952D01*
X142721428Y-79721714D01*
X142673809Y-79674095D01*
X142578571Y-79626476D01*
X142388095Y-79626476D01*
X142292857Y-79674095D01*
X142245238Y-79721714D01*
X142197619Y-79816952D01*
X142197619Y-80007428D01*
X142245238Y-80102666D01*
X142292857Y-80150285D01*
X142388095Y-80197904D01*
X142578571Y-80197904D01*
X142673809Y-80150285D01*
X142721428Y-80102666D01*
X142769047Y-80007428D01*
X155802380Y-79150285D02*
X155850000Y-79197904D01*
X155897619Y-79293142D01*
X155897619Y-79531238D01*
X155850000Y-79626476D01*
X155802380Y-79674095D01*
X155707142Y-79721714D01*
X155611904Y-79721714D01*
X155469047Y-79674095D01*
X154897619Y-79102666D01*
X154897619Y-79721714D01*
X116797619Y-79245523D02*
X116797619Y-78674095D01*
X116797619Y-78959809D02*
X117797619Y-78959809D01*
X117654761Y-78864571D01*
X117559523Y-78769333D01*
X117511904Y-78674095D01*
X116797619Y-79721714D02*
X116797619Y-79912190D01*
X116845238Y-80007428D01*
X116892857Y-80055047D01*
X117035714Y-80150285D01*
X117226190Y-80197904D01*
X117607142Y-80197904D01*
X117702380Y-80150285D01*
X117750000Y-80102666D01*
X117797619Y-80007428D01*
X117797619Y-79816952D01*
X117750000Y-79721714D01*
X117702380Y-79674095D01*
X117607142Y-79626476D01*
X117369047Y-79626476D01*
X117273809Y-79674095D01*
X117226190Y-79721714D01*
X117178571Y-79816952D01*
X117178571Y-80007428D01*
X117226190Y-80102666D01*
X117273809Y-80150285D01*
X117369047Y-80197904D01*
X138117619Y-78626476D02*
X138117619Y-79245523D01*
X137736666Y-78912190D01*
X137736666Y-79055047D01*
X137689047Y-79150285D01*
X137641428Y-79197904D01*
X137546190Y-79245523D01*
X137308095Y-79245523D01*
X137212857Y-79197904D01*
X137165238Y-79150285D01*
X137117619Y-79055047D01*
X137117619Y-78769333D01*
X137165238Y-78674095D01*
X137212857Y-78626476D01*
X138117619Y-80102666D02*
X138117619Y-79912190D01*
X138070000Y-79816952D01*
X138022380Y-79769333D01*
X137879523Y-79674095D01*
X137689047Y-79626476D01*
X137308095Y-79626476D01*
X137212857Y-79674095D01*
X137165238Y-79721714D01*
X137117619Y-79816952D01*
X137117619Y-80007428D01*
X137165238Y-80102666D01*
X137212857Y-80150285D01*
X137308095Y-80197904D01*
X137546190Y-80197904D01*
X137641428Y-80150285D01*
X137689047Y-80102666D01*
X137736666Y-80007428D01*
X137736666Y-79816952D01*
X137689047Y-79721714D01*
X137641428Y-79674095D01*
X137546190Y-79626476D01*
X127624285Y-79150285D02*
X126957619Y-79150285D01*
X128005238Y-78912190D02*
X127290952Y-78674095D01*
X127290952Y-79293142D01*
X127529047Y-79816952D02*
X127576666Y-79721714D01*
X127624285Y-79674095D01*
X127719523Y-79626476D01*
X127767142Y-79626476D01*
X127862380Y-79674095D01*
X127910000Y-79721714D01*
X127957619Y-79816952D01*
X127957619Y-80007428D01*
X127910000Y-80102666D01*
X127862380Y-80150285D01*
X127767142Y-80197904D01*
X127719523Y-80197904D01*
X127624285Y-80150285D01*
X127576666Y-80102666D01*
X127529047Y-80007428D01*
X127529047Y-79816952D01*
X127481428Y-79721714D01*
X127433809Y-79674095D01*
X127338571Y-79626476D01*
X127148095Y-79626476D01*
X127052857Y-79674095D01*
X127005238Y-79721714D01*
X126957619Y-79816952D01*
X126957619Y-80007428D01*
X127005238Y-80102666D01*
X127052857Y-80150285D01*
X127148095Y-80197904D01*
X127338571Y-80197904D01*
X127433809Y-80150285D01*
X127481428Y-80102666D01*
X127529047Y-80007428D01*
X133037619Y-79388380D02*
X133037619Y-79483619D01*
X132990000Y-79578857D01*
X132942380Y-79626476D01*
X132847142Y-79674095D01*
X132656666Y-79721714D01*
X132418571Y-79721714D01*
X132228095Y-79674095D01*
X132132857Y-79626476D01*
X132085238Y-79578857D01*
X132037619Y-79483619D01*
X132037619Y-79388380D01*
X132085238Y-79293142D01*
X132132857Y-79245523D01*
X132228095Y-79197904D01*
X132418571Y-79150285D01*
X132656666Y-79150285D01*
X132847142Y-79197904D01*
X132942380Y-79245523D01*
X132990000Y-79293142D01*
X133037619Y-79388380D01*
X147944285Y-79150285D02*
X147277619Y-79150285D01*
X148325238Y-78912190D02*
X147610952Y-78674095D01*
X147610952Y-79293142D01*
X148277619Y-79864571D02*
X148277619Y-79959809D01*
X148230000Y-80055047D01*
X148182380Y-80102666D01*
X148087142Y-80150285D01*
X147896666Y-80197904D01*
X147658571Y-80197904D01*
X147468095Y-80150285D01*
X147372857Y-80102666D01*
X147325238Y-80055047D01*
X147277619Y-79959809D01*
X147277619Y-79864571D01*
X147325238Y-79769333D01*
X147372857Y-79721714D01*
X147468095Y-79674095D01*
X147658571Y-79626476D01*
X147896666Y-79626476D01*
X148087142Y-79674095D01*
X148182380Y-79721714D01*
X148230000Y-79769333D01*
X148277619Y-79864571D01*
X130164285Y-79150285D02*
X129497619Y-79150285D01*
X130545238Y-78912190D02*
X129830952Y-78674095D01*
X129830952Y-79293142D01*
X130497619Y-80150285D02*
X130497619Y-79674095D01*
X130021428Y-79626476D01*
X130069047Y-79674095D01*
X130116666Y-79769333D01*
X130116666Y-80007428D01*
X130069047Y-80102666D01*
X130021428Y-80150285D01*
X129926190Y-80197904D01*
X129688095Y-80197904D01*
X129592857Y-80150285D01*
X129545238Y-80102666D01*
X129497619Y-80007428D01*
X129497619Y-79769333D01*
X129545238Y-79674095D01*
X129592857Y-79626476D01*
X112670000Y-78674095D02*
X112717619Y-78578857D01*
X112717619Y-78436000D01*
X112670000Y-78293142D01*
X112574761Y-78197904D01*
X112479523Y-78150285D01*
X112289047Y-78102666D01*
X112146190Y-78102666D01*
X111955714Y-78150285D01*
X111860476Y-78197904D01*
X111765238Y-78293142D01*
X111717619Y-78436000D01*
X111717619Y-78531238D01*
X111765238Y-78674095D01*
X111812857Y-78721714D01*
X112146190Y-78721714D01*
X112146190Y-78531238D01*
X111717619Y-79150285D02*
X112717619Y-79150285D01*
X111717619Y-79721714D01*
X112717619Y-79721714D01*
X111717619Y-80197904D02*
X112717619Y-80197904D01*
X112717619Y-80436000D01*
X112670000Y-80578857D01*
X112574761Y-80674095D01*
X112479523Y-80721714D01*
X112289047Y-80769333D01*
X112146190Y-80769333D01*
X111955714Y-80721714D01*
X111860476Y-80674095D01*
X111765238Y-80578857D01*
X111717619Y-80436000D01*
X111717619Y-80197904D01*
X150484285Y-79150285D02*
X149817619Y-79150285D01*
X150865238Y-78912190D02*
X150150952Y-78674095D01*
X150150952Y-79293142D01*
X149817619Y-80197904D02*
X149817619Y-79626476D01*
X149817619Y-79912190D02*
X150817619Y-79912190D01*
X150674761Y-79816952D01*
X150579523Y-79721714D01*
X150531904Y-79626476D01*
X145737619Y-78626476D02*
X145737619Y-79245523D01*
X145356666Y-78912190D01*
X145356666Y-79055047D01*
X145309047Y-79150285D01*
X145261428Y-79197904D01*
X145166190Y-79245523D01*
X144928095Y-79245523D01*
X144832857Y-79197904D01*
X144785238Y-79150285D01*
X144737619Y-79055047D01*
X144737619Y-78769333D01*
X144785238Y-78674095D01*
X144832857Y-78626476D01*
X144737619Y-79721714D02*
X144737619Y-79912190D01*
X144785238Y-80007428D01*
X144832857Y-80055047D01*
X144975714Y-80150285D01*
X145166190Y-80197904D01*
X145547142Y-80197904D01*
X145642380Y-80150285D01*
X145690000Y-80102666D01*
X145737619Y-80007428D01*
X145737619Y-79816952D01*
X145690000Y-79721714D01*
X145642380Y-79674095D01*
X145547142Y-79626476D01*
X145309047Y-79626476D01*
X145213809Y-79674095D01*
X145166190Y-79721714D01*
X145118571Y-79816952D01*
X145118571Y-80007428D01*
X145166190Y-80102666D01*
X145213809Y-80150285D01*
X145309047Y-80197904D01*
X122782380Y-78674095D02*
X122830000Y-78721714D01*
X122877619Y-78816952D01*
X122877619Y-79055047D01*
X122830000Y-79150285D01*
X122782380Y-79197904D01*
X122687142Y-79245523D01*
X122591904Y-79245523D01*
X122449047Y-79197904D01*
X121877619Y-78626476D01*
X121877619Y-79245523D01*
X121877619Y-80197904D02*
X121877619Y-79626476D01*
X121877619Y-79912190D02*
X122877619Y-79912190D01*
X122734761Y-79816952D01*
X122639523Y-79721714D01*
X122591904Y-79626476D01*
X112770000Y-44410095D02*
X112817619Y-44314857D01*
X112817619Y-44172000D01*
X112770000Y-44029142D01*
X112674761Y-43933904D01*
X112579523Y-43886285D01*
X112389047Y-43838666D01*
X112246190Y-43838666D01*
X112055714Y-43886285D01*
X111960476Y-43933904D01*
X111865238Y-44029142D01*
X111817619Y-44172000D01*
X111817619Y-44267238D01*
X111865238Y-44410095D01*
X111912857Y-44457714D01*
X112246190Y-44457714D01*
X112246190Y-44267238D01*
X111817619Y-44886285D02*
X112817619Y-44886285D01*
X111817619Y-45457714D01*
X112817619Y-45457714D01*
X111817619Y-45933904D02*
X112817619Y-45933904D01*
X112817619Y-46172000D01*
X112770000Y-46314857D01*
X112674761Y-46410095D01*
X112579523Y-46457714D01*
X112389047Y-46505333D01*
X112246190Y-46505333D01*
X112055714Y-46457714D01*
X111960476Y-46410095D01*
X111865238Y-46314857D01*
X111817619Y-46172000D01*
X111817619Y-45933904D01*
X115357619Y-44981523D02*
X115357619Y-44505333D01*
X114881428Y-44457714D01*
X114929047Y-44505333D01*
X114976666Y-44600571D01*
X114976666Y-44838666D01*
X114929047Y-44933904D01*
X114881428Y-44981523D01*
X114786190Y-45029142D01*
X114548095Y-45029142D01*
X114452857Y-44981523D01*
X114405238Y-44933904D01*
X114357619Y-44838666D01*
X114357619Y-44600571D01*
X114405238Y-44505333D01*
X114452857Y-44457714D01*
X115357619Y-45314857D02*
X114357619Y-45648190D01*
X115357619Y-45981523D01*
X116897619Y-44981523D02*
X116897619Y-44410095D01*
X116897619Y-44695809D02*
X117897619Y-44695809D01*
X117754761Y-44600571D01*
X117659523Y-44505333D01*
X117611904Y-44410095D01*
X117564285Y-45838666D02*
X116897619Y-45838666D01*
X117945238Y-45600571D02*
X117230952Y-45362476D01*
X117230952Y-45981523D01*
X119437619Y-44981523D02*
X119437619Y-44410095D01*
X119437619Y-44695809D02*
X120437619Y-44695809D01*
X120294761Y-44600571D01*
X120199523Y-44505333D01*
X120151904Y-44410095D01*
X120437619Y-45314857D02*
X120437619Y-45933904D01*
X120056666Y-45600571D01*
X120056666Y-45743428D01*
X120009047Y-45838666D01*
X119961428Y-45886285D01*
X119866190Y-45933904D01*
X119628095Y-45933904D01*
X119532857Y-45886285D01*
X119485238Y-45838666D01*
X119437619Y-45743428D01*
X119437619Y-45457714D01*
X119485238Y-45362476D01*
X119532857Y-45314857D01*
X121977619Y-44981523D02*
X121977619Y-44410095D01*
X121977619Y-44695809D02*
X122977619Y-44695809D01*
X122834761Y-44600571D01*
X122739523Y-44505333D01*
X122691904Y-44410095D01*
X122882380Y-45362476D02*
X122930000Y-45410095D01*
X122977619Y-45505333D01*
X122977619Y-45743428D01*
X122930000Y-45838666D01*
X122882380Y-45886285D01*
X122787142Y-45933904D01*
X122691904Y-45933904D01*
X122549047Y-45886285D01*
X121977619Y-45314857D01*
X121977619Y-45933904D01*
X124517619Y-44981523D02*
X124517619Y-44410095D01*
X124517619Y-44695809D02*
X125517619Y-44695809D01*
X125374761Y-44600571D01*
X125279523Y-44505333D01*
X125231904Y-44410095D01*
X124517619Y-45933904D02*
X124517619Y-45362476D01*
X124517619Y-45648190D02*
X125517619Y-45648190D01*
X125374761Y-45552952D01*
X125279523Y-45457714D01*
X125231904Y-45362476D01*
X127057619Y-44981523D02*
X127057619Y-44410095D01*
X127057619Y-44695809D02*
X128057619Y-44695809D01*
X127914761Y-44600571D01*
X127819523Y-44505333D01*
X127771904Y-44410095D01*
X128057619Y-45600571D02*
X128057619Y-45695809D01*
X128010000Y-45791047D01*
X127962380Y-45838666D01*
X127867142Y-45886285D01*
X127676666Y-45933904D01*
X127438571Y-45933904D01*
X127248095Y-45886285D01*
X127152857Y-45838666D01*
X127105238Y-45791047D01*
X127057619Y-45695809D01*
X127057619Y-45600571D01*
X127105238Y-45505333D01*
X127152857Y-45457714D01*
X127248095Y-45410095D01*
X127438571Y-45362476D01*
X127676666Y-45362476D01*
X127867142Y-45410095D01*
X127962380Y-45457714D01*
X128010000Y-45505333D01*
X128057619Y-45600571D01*
X129597619Y-44981523D02*
X129597619Y-45172000D01*
X129645238Y-45267238D01*
X129692857Y-45314857D01*
X129835714Y-45410095D01*
X130026190Y-45457714D01*
X130407142Y-45457714D01*
X130502380Y-45410095D01*
X130550000Y-45362476D01*
X130597619Y-45267238D01*
X130597619Y-45076761D01*
X130550000Y-44981523D01*
X130502380Y-44933904D01*
X130407142Y-44886285D01*
X130169047Y-44886285D01*
X130073809Y-44933904D01*
X130026190Y-44981523D01*
X129978571Y-45076761D01*
X129978571Y-45267238D01*
X130026190Y-45362476D01*
X130073809Y-45410095D01*
X130169047Y-45457714D01*
X132804285Y-44886285D02*
X132137619Y-44886285D01*
X133185238Y-44648190D02*
X132470952Y-44410095D01*
X132470952Y-45029142D01*
X133137619Y-45838666D02*
X133137619Y-45648190D01*
X133090000Y-45552952D01*
X133042380Y-45505333D01*
X132899523Y-45410095D01*
X132709047Y-45362476D01*
X132328095Y-45362476D01*
X132232857Y-45410095D01*
X132185238Y-45457714D01*
X132137619Y-45552952D01*
X132137619Y-45743428D01*
X132185238Y-45838666D01*
X132232857Y-45886285D01*
X132328095Y-45933904D01*
X132566190Y-45933904D01*
X132661428Y-45886285D01*
X132709047Y-45838666D01*
X132756666Y-45743428D01*
X132756666Y-45552952D01*
X132709047Y-45457714D01*
X132661428Y-45410095D01*
X132566190Y-45362476D01*
X135677619Y-44838666D02*
X135677619Y-45457714D01*
X135296666Y-45124380D01*
X135296666Y-45267238D01*
X135249047Y-45362476D01*
X135201428Y-45410095D01*
X135106190Y-45457714D01*
X134868095Y-45457714D01*
X134772857Y-45410095D01*
X134725238Y-45362476D01*
X134677619Y-45267238D01*
X134677619Y-44981523D01*
X134725238Y-44886285D01*
X134772857Y-44838666D01*
X137789047Y-45076761D02*
X137836666Y-44981523D01*
X137884285Y-44933904D01*
X137979523Y-44886285D01*
X138027142Y-44886285D01*
X138122380Y-44933904D01*
X138170000Y-44981523D01*
X138217619Y-45076761D01*
X138217619Y-45267238D01*
X138170000Y-45362476D01*
X138122380Y-45410095D01*
X138027142Y-45457714D01*
X137979523Y-45457714D01*
X137884285Y-45410095D01*
X137836666Y-45362476D01*
X137789047Y-45267238D01*
X137789047Y-45076761D01*
X137741428Y-44981523D01*
X137693809Y-44933904D01*
X137598571Y-44886285D01*
X137408095Y-44886285D01*
X137312857Y-44933904D01*
X137265238Y-44981523D01*
X137217619Y-45076761D01*
X137217619Y-45267238D01*
X137265238Y-45362476D01*
X137312857Y-45410095D01*
X137408095Y-45457714D01*
X137598571Y-45457714D01*
X137693809Y-45410095D01*
X137741428Y-45362476D01*
X137789047Y-45267238D01*
X139757619Y-44981523D02*
X139757619Y-44410095D01*
X139757619Y-44695809D02*
X140757619Y-44695809D01*
X140614761Y-44600571D01*
X140519523Y-44505333D01*
X140471904Y-44410095D01*
X140329047Y-45552952D02*
X140376666Y-45457714D01*
X140424285Y-45410095D01*
X140519523Y-45362476D01*
X140567142Y-45362476D01*
X140662380Y-45410095D01*
X140710000Y-45457714D01*
X140757619Y-45552952D01*
X140757619Y-45743428D01*
X140710000Y-45838666D01*
X140662380Y-45886285D01*
X140567142Y-45933904D01*
X140519523Y-45933904D01*
X140424285Y-45886285D01*
X140376666Y-45838666D01*
X140329047Y-45743428D01*
X140329047Y-45552952D01*
X140281428Y-45457714D01*
X140233809Y-45410095D01*
X140138571Y-45362476D01*
X139948095Y-45362476D01*
X139852857Y-45410095D01*
X139805238Y-45457714D01*
X139757619Y-45552952D01*
X139757619Y-45743428D01*
X139805238Y-45838666D01*
X139852857Y-45886285D01*
X139948095Y-45933904D01*
X140138571Y-45933904D01*
X140233809Y-45886285D01*
X140281428Y-45838666D01*
X140329047Y-45743428D01*
X142297619Y-44981523D02*
X142297619Y-44410095D01*
X142297619Y-44695809D02*
X143297619Y-44695809D01*
X143154761Y-44600571D01*
X143059523Y-44505333D01*
X143011904Y-44410095D01*
X143297619Y-45314857D02*
X143297619Y-45981523D01*
X142297619Y-45552952D01*
X144837619Y-44981523D02*
X144837619Y-44410095D01*
X144837619Y-44695809D02*
X145837619Y-44695809D01*
X145694761Y-44600571D01*
X145599523Y-44505333D01*
X145551904Y-44410095D01*
X145837619Y-45838666D02*
X145837619Y-45648190D01*
X145790000Y-45552952D01*
X145742380Y-45505333D01*
X145599523Y-45410095D01*
X145409047Y-45362476D01*
X145028095Y-45362476D01*
X144932857Y-45410095D01*
X144885238Y-45457714D01*
X144837619Y-45552952D01*
X144837619Y-45743428D01*
X144885238Y-45838666D01*
X144932857Y-45886285D01*
X145028095Y-45933904D01*
X145266190Y-45933904D01*
X145361428Y-45886285D01*
X145409047Y-45838666D01*
X145456666Y-45743428D01*
X145456666Y-45552952D01*
X145409047Y-45457714D01*
X145361428Y-45410095D01*
X145266190Y-45362476D01*
X147377619Y-44981523D02*
X147377619Y-44410095D01*
X147377619Y-44695809D02*
X148377619Y-44695809D01*
X148234761Y-44600571D01*
X148139523Y-44505333D01*
X148091904Y-44410095D01*
X148377619Y-45886285D02*
X148377619Y-45410095D01*
X147901428Y-45362476D01*
X147949047Y-45410095D01*
X147996666Y-45505333D01*
X147996666Y-45743428D01*
X147949047Y-45838666D01*
X147901428Y-45886285D01*
X147806190Y-45933904D01*
X147568095Y-45933904D01*
X147472857Y-45886285D01*
X147425238Y-45838666D01*
X147377619Y-45743428D01*
X147377619Y-45505333D01*
X147425238Y-45410095D01*
X147472857Y-45362476D01*
X150917619Y-44838666D02*
X150917619Y-45505333D01*
X149917619Y-45076761D01*
X153457619Y-45362476D02*
X153457619Y-45172000D01*
X153410000Y-45076761D01*
X153362380Y-45029142D01*
X153219523Y-44933904D01*
X153029047Y-44886285D01*
X152648095Y-44886285D01*
X152552857Y-44933904D01*
X152505238Y-44981523D01*
X152457619Y-45076761D01*
X152457619Y-45267238D01*
X152505238Y-45362476D01*
X152552857Y-45410095D01*
X152648095Y-45457714D01*
X152886190Y-45457714D01*
X152981428Y-45410095D01*
X153029047Y-45362476D01*
X153076666Y-45267238D01*
X153076666Y-45076761D01*
X153029047Y-44981523D01*
X152981428Y-44933904D01*
X152886190Y-44886285D01*
X155997619Y-45410095D02*
X155997619Y-44933904D01*
X155521428Y-44886285D01*
X155569047Y-44933904D01*
X155616666Y-45029142D01*
X155616666Y-45267238D01*
X155569047Y-45362476D01*
X155521428Y-45410095D01*
X155426190Y-45457714D01*
X155188095Y-45457714D01*
X155092857Y-45410095D01*
X155045238Y-45362476D01*
X154997619Y-45267238D01*
X154997619Y-45029142D01*
X155045238Y-44933904D01*
X155092857Y-44886285D01*
X158204285Y-45362476D02*
X157537619Y-45362476D01*
X158585238Y-45124380D02*
X157870952Y-44886285D01*
X157870952Y-45505333D01*
X160077619Y-44624380D02*
X160553809Y-44291047D01*
X160077619Y-44052952D02*
X161077619Y-44052952D01*
X161077619Y-44433904D01*
X161030000Y-44529142D01*
X160982380Y-44576761D01*
X160887142Y-44624380D01*
X160744285Y-44624380D01*
X160649047Y-44576761D01*
X160601428Y-44529142D01*
X160553809Y-44433904D01*
X160553809Y-44052952D01*
X160125238Y-45005333D02*
X160077619Y-45148190D01*
X160077619Y-45386285D01*
X160125238Y-45481523D01*
X160172857Y-45529142D01*
X160268095Y-45576761D01*
X160363333Y-45576761D01*
X160458571Y-45529142D01*
X160506190Y-45481523D01*
X160553809Y-45386285D01*
X160601428Y-45195809D01*
X160649047Y-45100571D01*
X160696666Y-45052952D01*
X160791904Y-45005333D01*
X160887142Y-45005333D01*
X160982380Y-45052952D01*
X161030000Y-45100571D01*
X161077619Y-45195809D01*
X161077619Y-45433904D01*
X161030000Y-45576761D01*
X161077619Y-45862476D02*
X161077619Y-46433904D01*
X160077619Y-46148190D02*
X161077619Y-46148190D01*
X163617619Y-43933904D02*
X163617619Y-44552952D01*
X163236666Y-44219619D01*
X163236666Y-44362476D01*
X163189047Y-44457714D01*
X163141428Y-44505333D01*
X163046190Y-44552952D01*
X162808095Y-44552952D01*
X162712857Y-44505333D01*
X162665238Y-44457714D01*
X162617619Y-44362476D01*
X162617619Y-44076761D01*
X162665238Y-43981523D01*
X162712857Y-43933904D01*
X163617619Y-44838666D02*
X162617619Y-45172000D01*
X163617619Y-45505333D01*
X163617619Y-45743428D02*
X163617619Y-46362476D01*
X163236666Y-46029142D01*
X163236666Y-46172000D01*
X163189047Y-46267238D01*
X163141428Y-46314857D01*
X163046190Y-46362476D01*
X162808095Y-46362476D01*
X162712857Y-46314857D01*
X162665238Y-46267238D01*
X162617619Y-46172000D01*
X162617619Y-45886285D01*
X162665238Y-45791047D01*
X162712857Y-45743428D01*
X166157619Y-43933904D02*
X166157619Y-44552952D01*
X165776666Y-44219619D01*
X165776666Y-44362476D01*
X165729047Y-44457714D01*
X165681428Y-44505333D01*
X165586190Y-44552952D01*
X165348095Y-44552952D01*
X165252857Y-44505333D01*
X165205238Y-44457714D01*
X165157619Y-44362476D01*
X165157619Y-44076761D01*
X165205238Y-43981523D01*
X165252857Y-43933904D01*
X166157619Y-44838666D02*
X165157619Y-45172000D01*
X166157619Y-45505333D01*
X166157619Y-45743428D02*
X166157619Y-46362476D01*
X165776666Y-46029142D01*
X165776666Y-46172000D01*
X165729047Y-46267238D01*
X165681428Y-46314857D01*
X165586190Y-46362476D01*
X165348095Y-46362476D01*
X165252857Y-46314857D01*
X165205238Y-46267238D01*
X165157619Y-46172000D01*
X165157619Y-45886285D01*
X165205238Y-45791047D01*
X165252857Y-45743428D01*
X170433333Y-59038095D02*
X170433333Y-59514285D01*
X170147619Y-58942857D02*
X171147619Y-59276190D01*
X170147619Y-59609523D01*
X170814285Y-59942857D02*
X170147619Y-59942857D01*
X170719047Y-59942857D02*
X170766666Y-59990476D01*
X170814285Y-60085714D01*
X170814285Y-60228571D01*
X170766666Y-60323809D01*
X170671428Y-60371428D01*
X170147619Y-60371428D01*
X170814285Y-60704761D02*
X170814285Y-61085714D01*
X171147619Y-60847619D02*
X170290476Y-60847619D01*
X170195238Y-60895238D01*
X170147619Y-60990476D01*
X170147619Y-61085714D01*
X170195238Y-61800000D02*
X170147619Y-61704761D01*
X170147619Y-61514285D01*
X170195238Y-61419047D01*
X170290476Y-61371428D01*
X170671428Y-61371428D01*
X170766666Y-61419047D01*
X170814285Y-61514285D01*
X170814285Y-61704761D01*
X170766666Y-61800000D01*
X170671428Y-61847619D01*
X170576190Y-61847619D01*
X170480952Y-61371428D01*
X170814285Y-62276190D02*
X170147619Y-62276190D01*
X170719047Y-62276190D02*
X170766666Y-62323809D01*
X170814285Y-62419047D01*
X170814285Y-62561904D01*
X170766666Y-62657142D01*
X170671428Y-62704761D01*
X170147619Y-62704761D01*
X170814285Y-63180952D02*
X170147619Y-63180952D01*
X170719047Y-63180952D02*
X170766666Y-63228571D01*
X170814285Y-63323809D01*
X170814285Y-63466666D01*
X170766666Y-63561904D01*
X170671428Y-63609523D01*
X170147619Y-63609523D01*
X170147619Y-64514285D02*
X170671428Y-64514285D01*
X170766666Y-64466666D01*
X170814285Y-64371428D01*
X170814285Y-64180952D01*
X170766666Y-64085714D01*
X170195238Y-64514285D02*
X170147619Y-64419047D01*
X170147619Y-64180952D01*
X170195238Y-64085714D01*
X170290476Y-64038095D01*
X170385714Y-64038095D01*
X170480952Y-64085714D01*
X170528571Y-64180952D01*
X170528571Y-64419047D01*
X170576190Y-64514285D01*
D11*
X172300000Y-53100000D02*
X167000000Y-53100000D01*
X172320000Y-71160000D02*
X172320000Y-53100000D01*
X167000000Y-71160000D02*
X172320000Y-71160000D01*
X110890000Y-72330000D02*
X110890000Y-52130000D01*
D10*
X87452380Y-77190476D02*
X86452380Y-77190476D01*
X87452380Y-76238095D02*
X87452380Y-76714285D01*
X86452380Y-76714285D01*
X87452380Y-75904761D02*
X86452380Y-75904761D01*
X87452380Y-75380952D02*
X87452380Y-75190476D01*
X87404761Y-75095238D01*
X87357142Y-75047619D01*
X87214285Y-74952380D01*
X87023809Y-74904761D01*
X86642857Y-74904761D01*
X86547619Y-74952380D01*
X86500000Y-75000000D01*
X86452380Y-75095238D01*
X86452380Y-75285714D01*
X86500000Y-75380952D01*
X86547619Y-75428571D01*
X86642857Y-75476190D01*
X86880952Y-75476190D01*
X86976190Y-75428571D01*
X87023809Y-75380952D01*
X87071428Y-75285714D01*
X87071428Y-75095238D01*
X87023809Y-75000000D01*
X86976190Y-74952380D01*
X86880952Y-74904761D01*
X86785714Y-74047619D02*
X87452380Y-74047619D01*
X86404761Y-74285714D02*
X87119047Y-74523809D01*
X87119047Y-73904761D01*
X86880952Y-73380952D02*
X86833333Y-73476190D01*
X86785714Y-73523809D01*
X86690476Y-73571428D01*
X86642857Y-73571428D01*
X86547619Y-73523809D01*
X86500000Y-73476190D01*
X86452380Y-73380952D01*
X86452380Y-73190476D01*
X86500000Y-73095238D01*
X86547619Y-73047619D01*
X86642857Y-73000000D01*
X86690476Y-73000000D01*
X86785714Y-73047619D01*
X86833333Y-73095238D01*
X86880952Y-73190476D01*
X86880952Y-73380952D01*
X86928571Y-73476190D01*
X86976190Y-73523809D01*
X87071428Y-73571428D01*
X87261904Y-73571428D01*
X87357142Y-73523809D01*
X87404761Y-73476190D01*
X87452380Y-73380952D01*
X87452380Y-73190476D01*
X87404761Y-73095238D01*
X87357142Y-73047619D01*
X87261904Y-73000000D01*
X87071428Y-73000000D01*
X86976190Y-73047619D01*
X86928571Y-73095238D01*
X86880952Y-73190476D01*
X86880952Y-72428571D02*
X86833333Y-72523809D01*
X86785714Y-72571428D01*
X86690476Y-72619047D01*
X86642857Y-72619047D01*
X86547619Y-72571428D01*
X86500000Y-72523809D01*
X86452380Y-72428571D01*
X86452380Y-72238095D01*
X86500000Y-72142857D01*
X86547619Y-72095238D01*
X86642857Y-72047619D01*
X86690476Y-72047619D01*
X86785714Y-72095238D01*
X86833333Y-72142857D01*
X86880952Y-72238095D01*
X86880952Y-72428571D01*
X86928571Y-72523809D01*
X86976190Y-72571428D01*
X87071428Y-72619047D01*
X87261904Y-72619047D01*
X87357142Y-72571428D01*
X87404761Y-72523809D01*
X87452380Y-72428571D01*
X87452380Y-72238095D01*
X87404761Y-72142857D01*
X87357142Y-72095238D01*
X87261904Y-72047619D01*
X87071428Y-72047619D01*
X86976190Y-72095238D01*
X86928571Y-72142857D01*
X86880952Y-72238095D01*
X87071428Y-70857142D02*
X87071428Y-70095238D01*
X87452380Y-70476190D02*
X86690476Y-70476190D01*
X86452380Y-68952380D02*
X87452380Y-68285714D01*
X86452380Y-68285714D02*
X87452380Y-68952380D01*
X87452380Y-67904761D02*
X86452380Y-67904761D01*
X86452380Y-67523809D01*
X86500000Y-67428571D01*
X86547619Y-67380952D01*
X86642857Y-67333333D01*
X86785714Y-67333333D01*
X86880952Y-67380952D01*
X86928571Y-67428571D01*
X86976190Y-67523809D01*
X86976190Y-67904761D01*
X86452380Y-67047619D02*
X86452380Y-66476190D01*
X87452380Y-66761904D02*
X86452380Y-66761904D01*
X86547619Y-66190476D02*
X86500000Y-66142857D01*
X86452380Y-66047619D01*
X86452380Y-65809523D01*
X86500000Y-65714285D01*
X86547619Y-65666666D01*
X86642857Y-65619047D01*
X86738095Y-65619047D01*
X86880952Y-65666666D01*
X87452380Y-66238095D01*
X87452380Y-65619047D01*
X86452380Y-65000000D02*
X86452380Y-64904761D01*
X86500000Y-64809523D01*
X86547619Y-64761904D01*
X86642857Y-64714285D01*
X86833333Y-64666666D01*
X87071428Y-64666666D01*
X87261904Y-64714285D01*
X87357142Y-64761904D01*
X87404761Y-64809523D01*
X87452380Y-64904761D01*
X87452380Y-65000000D01*
X87404761Y-65095238D01*
X87357142Y-65142857D01*
X87261904Y-65190476D01*
X87071428Y-65238095D01*
X86833333Y-65238095D01*
X86642857Y-65190476D01*
X86547619Y-65142857D01*
X86500000Y-65095238D01*
X86452380Y-65000000D01*
X86785714Y-63809523D02*
X87452380Y-63809523D01*
X86404761Y-64047619D02*
X87119047Y-64285714D01*
X87119047Y-63666666D01*
X86452380Y-62857142D02*
X86452380Y-63047619D01*
X86500000Y-63142857D01*
X86547619Y-63190476D01*
X86690476Y-63285714D01*
X86880952Y-63333333D01*
X87261904Y-63333333D01*
X87357142Y-63285714D01*
X87404761Y-63238095D01*
X87452380Y-63142857D01*
X87452380Y-62952380D01*
X87404761Y-62857142D01*
X87357142Y-62809523D01*
X87261904Y-62761904D01*
X87023809Y-62761904D01*
X86928571Y-62809523D01*
X86880952Y-62857142D01*
X86833333Y-62952380D01*
X86833333Y-63142857D01*
X86880952Y-63238095D01*
X86928571Y-63285714D01*
X87023809Y-63333333D01*
X174595238Y-67904761D02*
X174547619Y-68047619D01*
X174547619Y-68285714D01*
X174595238Y-68380952D01*
X174642857Y-68428571D01*
X174738095Y-68476190D01*
X174833333Y-68476190D01*
X174928571Y-68428571D01*
X174976190Y-68380952D01*
X175023809Y-68285714D01*
X175071428Y-68095238D01*
X175119047Y-68000000D01*
X175166666Y-67952380D01*
X175261904Y-67904761D01*
X175357142Y-67904761D01*
X175452380Y-67952380D01*
X175500000Y-68000000D01*
X175547619Y-68095238D01*
X175547619Y-68333333D01*
X175500000Y-68476190D01*
X174547619Y-68904761D02*
X175547619Y-68904761D01*
X175547619Y-69142857D01*
X175500000Y-69285714D01*
X175404761Y-69380952D01*
X175309523Y-69428571D01*
X175119047Y-69476190D01*
X174976190Y-69476190D01*
X174785714Y-69428571D01*
X174690476Y-69380952D01*
X174595238Y-69285714D01*
X174547619Y-69142857D01*
X174547619Y-68904761D01*
X174642857Y-71238095D02*
X174595238Y-71190476D01*
X174547619Y-71047619D01*
X174547619Y-70952380D01*
X174595238Y-70809523D01*
X174690476Y-70714285D01*
X174785714Y-70666666D01*
X174976190Y-70619047D01*
X175119047Y-70619047D01*
X175309523Y-70666666D01*
X175404761Y-70714285D01*
X175500000Y-70809523D01*
X175547619Y-70952380D01*
X175547619Y-71047619D01*
X175500000Y-71190476D01*
X175452380Y-71238095D01*
X174833333Y-71619047D02*
X174833333Y-72095238D01*
X174547619Y-71523809D02*
X175547619Y-71857142D01*
X174547619Y-72190476D01*
X174547619Y-73095238D02*
X175023809Y-72761904D01*
X174547619Y-72523809D02*
X175547619Y-72523809D01*
X175547619Y-72904761D01*
X175500000Y-73000000D01*
X175452380Y-73047619D01*
X175357142Y-73095238D01*
X175214285Y-73095238D01*
X175119047Y-73047619D01*
X175071428Y-73000000D01*
X175023809Y-72904761D01*
X175023809Y-72523809D01*
X174547619Y-73523809D02*
X175547619Y-73523809D01*
X175547619Y-73761904D01*
X175500000Y-73904761D01*
X175404761Y-74000000D01*
X175309523Y-74047619D01*
X175119047Y-74095238D01*
X174976190Y-74095238D01*
X174785714Y-74047619D01*
X174690476Y-74000000D01*
X174595238Y-73904761D01*
X174547619Y-73761904D01*
X174547619Y-73523809D01*
X110232619Y-56198095D02*
X109423095Y-56198095D01*
X109327857Y-56245714D01*
X109280238Y-56293333D01*
X109232619Y-56388571D01*
X109232619Y-56579047D01*
X109280238Y-56674285D01*
X109327857Y-56721904D01*
X109423095Y-56769523D01*
X110232619Y-56769523D01*
X109280238Y-57198095D02*
X109232619Y-57340952D01*
X109232619Y-57579047D01*
X109280238Y-57674285D01*
X109327857Y-57721904D01*
X109423095Y-57769523D01*
X109518333Y-57769523D01*
X109613571Y-57721904D01*
X109661190Y-57674285D01*
X109708809Y-57579047D01*
X109756428Y-57388571D01*
X109804047Y-57293333D01*
X109851666Y-57245714D01*
X109946904Y-57198095D01*
X110042142Y-57198095D01*
X110137380Y-57245714D01*
X110185000Y-57293333D01*
X110232619Y-57388571D01*
X110232619Y-57626666D01*
X110185000Y-57769523D01*
X109756428Y-58531428D02*
X109708809Y-58674285D01*
X109661190Y-58721904D01*
X109565952Y-58769523D01*
X109423095Y-58769523D01*
X109327857Y-58721904D01*
X109280238Y-58674285D01*
X109232619Y-58579047D01*
X109232619Y-58198095D01*
X110232619Y-58198095D01*
X110232619Y-58531428D01*
X110185000Y-58626666D01*
X110137380Y-58674285D01*
X110042142Y-58721904D01*
X109946904Y-58721904D01*
X109851666Y-58674285D01*
X109804047Y-58626666D01*
X109756428Y-58531428D01*
X109756428Y-58198095D01*
X108582619Y-55864761D02*
X107773095Y-55864761D01*
X107677857Y-55912380D01*
X107630238Y-55960000D01*
X107582619Y-56055238D01*
X107582619Y-56245714D01*
X107630238Y-56340952D01*
X107677857Y-56388571D01*
X107773095Y-56436190D01*
X108582619Y-56436190D01*
X107868333Y-56864761D02*
X107868333Y-57340952D01*
X107582619Y-56769523D02*
X108582619Y-57102857D01*
X107582619Y-57436190D01*
X107582619Y-58340952D02*
X108058809Y-58007619D01*
X107582619Y-57769523D02*
X108582619Y-57769523D01*
X108582619Y-58150476D01*
X108535000Y-58245714D01*
X108487380Y-58293333D01*
X108392142Y-58340952D01*
X108249285Y-58340952D01*
X108154047Y-58293333D01*
X108106428Y-58245714D01*
X108058809Y-58150476D01*
X108058809Y-57769523D01*
X108582619Y-58626666D02*
X108582619Y-59198095D01*
X107582619Y-58912380D02*
X108582619Y-58912380D01*
X110232619Y-66198095D02*
X109423095Y-66198095D01*
X109327857Y-66245714D01*
X109280238Y-66293333D01*
X109232619Y-66388571D01*
X109232619Y-66579047D01*
X109280238Y-66674285D01*
X109327857Y-66721904D01*
X109423095Y-66769523D01*
X110232619Y-66769523D01*
X109280238Y-67198095D02*
X109232619Y-67340952D01*
X109232619Y-67579047D01*
X109280238Y-67674285D01*
X109327857Y-67721904D01*
X109423095Y-67769523D01*
X109518333Y-67769523D01*
X109613571Y-67721904D01*
X109661190Y-67674285D01*
X109708809Y-67579047D01*
X109756428Y-67388571D01*
X109804047Y-67293333D01*
X109851666Y-67245714D01*
X109946904Y-67198095D01*
X110042142Y-67198095D01*
X110137380Y-67245714D01*
X110185000Y-67293333D01*
X110232619Y-67388571D01*
X110232619Y-67626666D01*
X110185000Y-67769523D01*
X109756428Y-68531428D02*
X109708809Y-68674285D01*
X109661190Y-68721904D01*
X109565952Y-68769523D01*
X109423095Y-68769523D01*
X109327857Y-68721904D01*
X109280238Y-68674285D01*
X109232619Y-68579047D01*
X109232619Y-68198095D01*
X110232619Y-68198095D01*
X110232619Y-68531428D01*
X110185000Y-68626666D01*
X110137380Y-68674285D01*
X110042142Y-68721904D01*
X109946904Y-68721904D01*
X109851666Y-68674285D01*
X109804047Y-68626666D01*
X109756428Y-68531428D01*
X109756428Y-68198095D01*
X107582619Y-66436190D02*
X108582619Y-66436190D01*
X108106428Y-66436190D02*
X108106428Y-67007619D01*
X107582619Y-67007619D02*
X108582619Y-67007619D01*
X107582619Y-67483809D02*
X108582619Y-67483809D01*
X107582619Y-67960000D02*
X108582619Y-67960000D01*
X108582619Y-68198095D01*
X108535000Y-68340952D01*
X108439761Y-68436190D01*
X108344523Y-68483809D01*
X108154047Y-68531428D01*
X108011190Y-68531428D01*
X107820714Y-68483809D01*
X107725476Y-68436190D01*
X107630238Y-68340952D01*
X107582619Y-68198095D01*
X107582619Y-67960000D01*
X86800000Y-87485714D02*
X86038095Y-87771428D01*
X86800000Y-88057142D01*
X87276190Y-87771428D02*
X88038095Y-87771428D01*
X89180952Y-87152380D02*
X89800000Y-87152380D01*
X89466666Y-87533333D01*
X89609523Y-87533333D01*
X89704761Y-87580952D01*
X89752380Y-87628571D01*
X89800000Y-87723809D01*
X89800000Y-87961904D01*
X89752380Y-88057142D01*
X89704761Y-88104761D01*
X89609523Y-88152380D01*
X89323809Y-88152380D01*
X89228571Y-88104761D01*
X89180952Y-88057142D01*
X90085714Y-87152380D02*
X90419047Y-88152380D01*
X90752380Y-87152380D01*
X90990476Y-87152380D02*
X91609523Y-87152380D01*
X91276190Y-87533333D01*
X91419047Y-87533333D01*
X91514285Y-87580952D01*
X91561904Y-87628571D01*
X91609523Y-87723809D01*
X91609523Y-87961904D01*
X91561904Y-88057142D01*
X91514285Y-88104761D01*
X91419047Y-88152380D01*
X91133333Y-88152380D01*
X91038095Y-88104761D01*
X90990476Y-88057142D01*
D12*
X90698571Y-97334285D02*
X90698571Y-95534285D01*
X91127142Y-95534285D01*
X91384285Y-95620000D01*
X91555714Y-95791428D01*
X91641428Y-95962857D01*
X91727142Y-96305714D01*
X91727142Y-96562857D01*
X91641428Y-96905714D01*
X91555714Y-97077142D01*
X91384285Y-97248571D01*
X91127142Y-97334285D01*
X90698571Y-97334285D01*
X93270000Y-96134285D02*
X93270000Y-97334285D01*
X92498571Y-96134285D02*
X92498571Y-97077142D01*
X92584285Y-97248571D01*
X92755714Y-97334285D01*
X93012857Y-97334285D01*
X93184285Y-97248571D01*
X93270000Y-97162857D01*
X94041428Y-97248571D02*
X94212857Y-97334285D01*
X94555714Y-97334285D01*
X94727142Y-97248571D01*
X94812857Y-97077142D01*
X94812857Y-96991428D01*
X94727142Y-96820000D01*
X94555714Y-96734285D01*
X94298571Y-96734285D01*
X94127142Y-96648571D01*
X94041428Y-96477142D01*
X94041428Y-96391428D01*
X94127142Y-96220000D01*
X94298571Y-96134285D01*
X94555714Y-96134285D01*
X94727142Y-96220000D01*
X95327142Y-96134285D02*
X96012857Y-96134285D01*
X95584285Y-95534285D02*
X95584285Y-97077142D01*
X95670000Y-97248571D01*
X95841428Y-97334285D01*
X96012857Y-97334285D01*
X96612857Y-97334285D02*
X96612857Y-96134285D01*
X96612857Y-95534285D02*
X96527142Y-95620000D01*
X96612857Y-95705714D01*
X96698571Y-95620000D01*
X96612857Y-95534285D01*
X96612857Y-95705714D01*
X97470000Y-96134285D02*
X97470000Y-97334285D01*
X97470000Y-96305714D02*
X97555714Y-96220000D01*
X97727142Y-96134285D01*
X97984285Y-96134285D01*
X98155714Y-96220000D01*
X98241428Y-96391428D01*
X98241428Y-97334285D01*
X100298571Y-95534285D02*
X100727142Y-97334285D01*
X101070000Y-96048571D01*
X101412857Y-97334285D01*
X101841428Y-95534285D01*
X103298571Y-97334285D02*
X103298571Y-96391428D01*
X103212857Y-96220000D01*
X103041428Y-96134285D01*
X102698571Y-96134285D01*
X102527142Y-96220000D01*
X103298571Y-97248571D02*
X103127142Y-97334285D01*
X102698571Y-97334285D01*
X102527142Y-97248571D01*
X102441428Y-97077142D01*
X102441428Y-96905714D01*
X102527142Y-96734285D01*
X102698571Y-96648571D01*
X103127142Y-96648571D01*
X103298571Y-96562857D01*
X103898571Y-96134285D02*
X104584285Y-96134285D01*
X104155714Y-95534285D02*
X104155714Y-97077142D01*
X104241428Y-97248571D01*
X104412857Y-97334285D01*
X104584285Y-97334285D01*
X104927142Y-96134285D02*
X105612857Y-96134285D01*
X105184285Y-95534285D02*
X105184285Y-97077142D01*
X105270000Y-97248571D01*
X105441428Y-97334285D01*
X105612857Y-97334285D01*
X106127142Y-97248571D02*
X106298571Y-97334285D01*
X106641428Y-97334285D01*
X106812857Y-97248571D01*
X106898571Y-97077142D01*
X106898571Y-96991428D01*
X106812857Y-96820000D01*
X106641428Y-96734285D01*
X106384285Y-96734285D01*
X106212857Y-96648571D01*
X106127142Y-96477142D01*
X106127142Y-96391428D01*
X106212857Y-96220000D01*
X106384285Y-96134285D01*
X106641428Y-96134285D01*
X106812857Y-96220000D01*
X108955714Y-95705714D02*
X109041428Y-95620000D01*
X109212857Y-95534285D01*
X109641428Y-95534285D01*
X109812857Y-95620000D01*
X109898571Y-95705714D01*
X109984285Y-95877142D01*
X109984285Y-96048571D01*
X109898571Y-96305714D01*
X108870000Y-97334285D01*
X109984285Y-97334285D01*
X111098571Y-95534285D02*
X111270000Y-95534285D01*
X111441428Y-95620000D01*
X111527142Y-95705714D01*
X111612857Y-95877142D01*
X111698571Y-96220000D01*
X111698571Y-96648571D01*
X111612857Y-96991428D01*
X111527142Y-97162857D01*
X111441428Y-97248571D01*
X111270000Y-97334285D01*
X111098571Y-97334285D01*
X110927142Y-97248571D01*
X110841428Y-97162857D01*
X110755714Y-96991428D01*
X110670000Y-96648571D01*
X110670000Y-96220000D01*
X110755714Y-95877142D01*
X110841428Y-95705714D01*
X110927142Y-95620000D01*
X111098571Y-95534285D01*
X112384285Y-95705714D02*
X112470000Y-95620000D01*
X112641428Y-95534285D01*
X113070000Y-95534285D01*
X113241428Y-95620000D01*
X113327142Y-95705714D01*
X113412857Y-95877142D01*
X113412857Y-96048571D01*
X113327142Y-96305714D01*
X112298571Y-97334285D01*
X113412857Y-97334285D01*
X115127142Y-97334285D02*
X114098571Y-97334285D01*
X114612857Y-97334285D02*
X114612857Y-95534285D01*
X114441428Y-95791428D01*
X114270000Y-95962857D01*
X114098571Y-96048571D01*
X129685714Y-96421428D02*
X130285714Y-96421428D01*
X130542857Y-97364285D02*
X129685714Y-97364285D01*
X129685714Y-95564285D01*
X130542857Y-95564285D01*
X131228571Y-97278571D02*
X131485714Y-97364285D01*
X131914285Y-97364285D01*
X132085714Y-97278571D01*
X132171428Y-97192857D01*
X132257142Y-97021428D01*
X132257142Y-96850000D01*
X132171428Y-96678571D01*
X132085714Y-96592857D01*
X131914285Y-96507142D01*
X131571428Y-96421428D01*
X131400000Y-96335714D01*
X131314285Y-96250000D01*
X131228571Y-96078571D01*
X131228571Y-95907142D01*
X131314285Y-95735714D01*
X131400000Y-95650000D01*
X131571428Y-95564285D01*
X132000000Y-95564285D01*
X132257142Y-95650000D01*
X133028571Y-97364285D02*
X133028571Y-95564285D01*
X133714285Y-95564285D01*
X133885714Y-95650000D01*
X133971428Y-95735714D01*
X134057142Y-95907142D01*
X134057142Y-96164285D01*
X133971428Y-96335714D01*
X133885714Y-96421428D01*
X133714285Y-96507142D01*
X133028571Y-96507142D01*
X134657142Y-95564285D02*
X135771428Y-95564285D01*
X135171428Y-96250000D01*
X135428571Y-96250000D01*
X135600000Y-96335714D01*
X135685714Y-96421428D01*
X135771428Y-96592857D01*
X135771428Y-97021428D01*
X135685714Y-97192857D01*
X135600000Y-97278571D01*
X135428571Y-97364285D01*
X134914285Y-97364285D01*
X134742857Y-97278571D01*
X134657142Y-97192857D01*
X136457142Y-95735714D02*
X136542857Y-95650000D01*
X136714285Y-95564285D01*
X137142857Y-95564285D01*
X137314285Y-95650000D01*
X137400000Y-95735714D01*
X137485714Y-95907142D01*
X137485714Y-96078571D01*
X137400000Y-96335714D01*
X136371428Y-97364285D01*
X137485714Y-97364285D01*
X138257142Y-96678571D02*
X139628571Y-96678571D01*
X140400000Y-97278571D02*
X140657142Y-97364285D01*
X141085714Y-97364285D01*
X141257142Y-97278571D01*
X141342857Y-97192857D01*
X141428571Y-97021428D01*
X141428571Y-96850000D01*
X141342857Y-96678571D01*
X141257142Y-96592857D01*
X141085714Y-96507142D01*
X140742857Y-96421428D01*
X140571428Y-96335714D01*
X140485714Y-96250000D01*
X140400000Y-96078571D01*
X140400000Y-95907142D01*
X140485714Y-95735714D01*
X140571428Y-95650000D01*
X140742857Y-95564285D01*
X141171428Y-95564285D01*
X141428571Y-95650000D01*
X142028571Y-95564285D02*
X143142857Y-95564285D01*
X142542857Y-96250000D01*
X142800000Y-96250000D01*
X142971428Y-96335714D01*
X143057142Y-96421428D01*
X143142857Y-96592857D01*
X143142857Y-97021428D01*
X143057142Y-97192857D01*
X142971428Y-97278571D01*
X142800000Y-97364285D01*
X142285714Y-97364285D01*
X142114285Y-97278571D01*
X142028571Y-97192857D01*
X145285714Y-96678571D02*
X146657142Y-96678571D01*
X145971428Y-97364285D02*
X145971428Y-95992857D01*
X148628571Y-95564285D02*
X149657142Y-95564285D01*
X149142857Y-97364285D02*
X149142857Y-95564285D01*
X150857142Y-96421428D02*
X150257142Y-96421428D01*
X150257142Y-97364285D02*
X150257142Y-95564285D01*
X151114285Y-95564285D01*
X151542857Y-95564285D02*
X152571428Y-95564285D01*
X152057142Y-97364285D02*
X152057142Y-95564285D01*
X155571428Y-97192857D02*
X155485714Y-97278571D01*
X155228571Y-97364285D01*
X155057142Y-97364285D01*
X154800000Y-97278571D01*
X154628571Y-97107142D01*
X154542857Y-96935714D01*
X154457142Y-96592857D01*
X154457142Y-96335714D01*
X154542857Y-95992857D01*
X154628571Y-95821428D01*
X154800000Y-95650000D01*
X155057142Y-95564285D01*
X155228571Y-95564285D01*
X155485714Y-95650000D01*
X155571428Y-95735714D01*
X156600000Y-97364285D02*
X156428571Y-97278571D01*
X156342857Y-97192857D01*
X156257142Y-97021428D01*
X156257142Y-96507142D01*
X156342857Y-96335714D01*
X156428571Y-96250000D01*
X156600000Y-96164285D01*
X156857142Y-96164285D01*
X157028571Y-96250000D01*
X157114285Y-96335714D01*
X157200000Y-96507142D01*
X157200000Y-97021428D01*
X157114285Y-97192857D01*
X157028571Y-97278571D01*
X156857142Y-97364285D01*
X156600000Y-97364285D01*
X157971428Y-97364285D02*
X157971428Y-96164285D01*
X157971428Y-96335714D02*
X158057142Y-96250000D01*
X158228571Y-96164285D01*
X158485714Y-96164285D01*
X158657142Y-96250000D01*
X158742857Y-96421428D01*
X158742857Y-97364285D01*
X158742857Y-96421428D02*
X158828571Y-96250000D01*
X159000000Y-96164285D01*
X159257142Y-96164285D01*
X159428571Y-96250000D01*
X159514285Y-96421428D01*
X159514285Y-97364285D01*
X160371428Y-97364285D02*
X160371428Y-95564285D01*
X160371428Y-96250000D02*
X160542857Y-96164285D01*
X160885714Y-96164285D01*
X161057142Y-96250000D01*
X161142857Y-96335714D01*
X161228571Y-96507142D01*
X161228571Y-97021428D01*
X161142857Y-97192857D01*
X161057142Y-97278571D01*
X160885714Y-97364285D01*
X160542857Y-97364285D01*
X160371428Y-97278571D01*
X162000000Y-97364285D02*
X162000000Y-96164285D01*
X162000000Y-95564285D02*
X161914285Y-95650000D01*
X162000000Y-95735714D01*
X162085714Y-95650000D01*
X162000000Y-95564285D01*
X162000000Y-95735714D01*
X162857142Y-96164285D02*
X162857142Y-97364285D01*
X162857142Y-96335714D02*
X162942857Y-96250000D01*
X163114285Y-96164285D01*
X163371428Y-96164285D01*
X163542857Y-96250000D01*
X163628571Y-96421428D01*
X163628571Y-97364285D01*
X165171428Y-97278571D02*
X165000000Y-97364285D01*
X164657142Y-97364285D01*
X164485714Y-97278571D01*
X164400000Y-97107142D01*
X164400000Y-96421428D01*
X164485714Y-96250000D01*
X164657142Y-96164285D01*
X165000000Y-96164285D01*
X165171428Y-96250000D01*
X165257142Y-96421428D01*
X165257142Y-96592857D01*
X164400000Y-96764285D01*
X166028571Y-97364285D02*
X166028571Y-96164285D01*
X166028571Y-96507142D02*
X166114285Y-96335714D01*
X166200000Y-96250000D01*
X166371428Y-96164285D01*
X166542857Y-96164285D01*
X168257142Y-95564285D02*
X168857142Y-97364285D01*
X169457142Y-95564285D01*
X171000000Y-97364285D02*
X169971428Y-97364285D01*
X170485714Y-97364285D02*
X170485714Y-95564285D01*
X170314285Y-95821428D01*
X170142857Y-95992857D01*
X169971428Y-96078571D01*
D11*
X179130000Y-65980000D02*
X176470000Y-65980000D01*
X179130000Y-73660000D02*
X179130000Y-65980000D01*
X176470000Y-73660000D02*
X176470000Y-65980000D01*
X179130000Y-73660000D02*
X176470000Y-73660000D01*
X179130000Y-74930000D02*
X179130000Y-76260000D01*
X179130000Y-76260000D02*
X177800000Y-76260000D01*
X110890000Y-72330000D02*
X110890000Y-74990000D01*
X164290000Y-72330000D02*
X110890000Y-72330000D01*
X164290000Y-74990000D02*
X110890000Y-74990000D01*
X164290000Y-72330000D02*
X164290000Y-74990000D01*
X165560000Y-72330000D02*
X166890000Y-72330000D01*
X166890000Y-72330000D02*
X166890000Y-73660000D01*
X110890000Y-46930000D02*
X110890000Y-49590000D01*
X164290000Y-46930000D02*
X110890000Y-46930000D01*
X164290000Y-49590000D02*
X110890000Y-49590000D01*
X164290000Y-46930000D02*
X164290000Y-49590000D01*
X165560000Y-46930000D02*
X166890000Y-46930000D01*
X166890000Y-46930000D02*
X166890000Y-48260000D01*
X110890000Y-74870000D02*
X110890000Y-77530000D01*
X164290000Y-74870000D02*
X110890000Y-74870000D01*
X164290000Y-77530000D02*
X110890000Y-77530000D01*
X164290000Y-74870000D02*
X164290000Y-77530000D01*
X165560000Y-74870000D02*
X166890000Y-74870000D01*
X166890000Y-74870000D02*
X166890000Y-76200000D01*
X110890000Y-49470000D02*
X110890000Y-52130000D01*
X164290000Y-49470000D02*
X110890000Y-49470000D01*
X164290000Y-52130000D02*
X110890000Y-52130000D01*
X164290000Y-49470000D02*
X164290000Y-52130000D01*
X165560000Y-49470000D02*
X166890000Y-49470000D01*
X166890000Y-49470000D02*
X166890000Y-50800000D01*
X85150000Y-53280000D02*
X82490000Y-53280000D01*
X85150000Y-86360000D02*
X85150000Y-53280000D01*
X82490000Y-86360000D02*
X82490000Y-53280000D01*
X85150000Y-86360000D02*
X82490000Y-86360000D01*
X85150000Y-87630000D02*
X85150000Y-88960000D01*
X85150000Y-88960000D02*
X83820000Y-88960000D01*
M02*
