M48
INCH,TZ
T1C0.0118
T2C0.0394
%
G90
G05
T1
X35972Y-25500
X41339Y-22598
X44409Y-24173
X47087Y-21102
X49213Y-21654
X50866Y-22598
X66772Y-25433
X66772Y-26772
T2
X44181Y-29000
X45181Y-29000
X46181Y-29000
X47181Y-29000
X48181Y-29000
X49181Y-29000
X50181Y-29000
X51181Y-29000
X52181Y-29000
X53181Y-29000
X54181Y-29000
X55181Y-29000
X56181Y-29000
X57181Y-29000
X58181Y-29000
X59181Y-29000
X60181Y-29000
X61181Y-29000
X62181Y-29000
X63181Y-29000
X64181Y-29000
X65181Y-29000
X44181Y-19000
X45181Y-19000
X46181Y-19000
X47181Y-19000
X48181Y-19000
X49181Y-19000
X50181Y-19000
X51181Y-19000
X52181Y-19000
X53181Y-19000
X54181Y-19000
X55181Y-19000
X56181Y-19000
X57181Y-19000
X58181Y-19000
X59181Y-19000
X60181Y-19000
X61181Y-19000
X62181Y-19000
X63181Y-19000
X64181Y-19000
X65181Y-19000
X33000Y-21500
X33000Y-22500
X33000Y-23500
X33000Y-24500
X33000Y-25500
X33000Y-26500
X33000Y-27500
X33000Y-28500
X33000Y-29500
X33000Y-30500
X33000Y-31500
X33000Y-32500
X33000Y-33500
X33000Y-34500
X44181Y-20000
X45181Y-20000
X46181Y-20000
X47181Y-20000
X48181Y-20000
X49181Y-20000
X50181Y-20000
X51181Y-20000
X52181Y-20000
X53181Y-20000
X54181Y-20000
X55181Y-20000
X56181Y-20000
X57181Y-20000
X58181Y-20000
X59181Y-20000
X60181Y-20000
X61181Y-20000
X62181Y-20000
X63181Y-20000
X64181Y-20000
X65181Y-20000
X70000Y-26500
X70000Y-27500
X70000Y-28500
X70000Y-29500
X44181Y-30000
X45181Y-30000
X46181Y-30000
X47181Y-30000
X48181Y-30000
X49181Y-30000
X50181Y-30000
X51181Y-30000
X52181Y-30000
X53181Y-30000
X54181Y-30000
X55181Y-30000
X56181Y-30000
X57181Y-30000
X58181Y-30000
X59181Y-30000
X60181Y-30000
X61181Y-30000
X62181Y-30000
X63181Y-30000
X64181Y-30000
X65181Y-30000
T0
M30
